<?xml version="1.0" encoding="UTF-8" standalone="no" ?>
<!DOCTYPE svg PUBLIC "-//W3C//DTD SVG 1.1//EN" "http://www.w3.org/Graphics/SVG/1.1/DTD/svg11.dtd">
<svg xmlns="http://www.w3.org/2000/svg" xmlns:xlink="http://www.w3.org/1999/xlink" version="1.1" width="1080" height="1080" viewBox="0 0 1080 1080" xml:space="preserve">
<desc>Created with Fabric.js 5.2.4</desc>
<defs>
</defs>
<g transform="matrix(1 0 0 1 540 540)" id="f5886f09-3d79-4956-8d50-25694399540a"  >
<rect style="stroke: none; stroke-width: 1; stroke-dasharray: none; stroke-linecap: butt; stroke-dashoffset: 0; stroke-linejoin: miter; stroke-miterlimit: 4; fill: rgb(255,255,255); fill-rule: nonzero; opacity: 1; visibility: hidden;" vector-effect="non-scaling-stroke"  x="-540" y="-540" rx="0" ry="0" width="1080" height="1080" />
</g>
<g transform="matrix(1 0 0 1 540 540)" id="b767d175-e8e6-4b25-a405-d98c6b7ee330"  >
</g>
<g transform="matrix(1 0 0 1 540 540)"  >
<rect style="stroke: none; stroke-width: 1; stroke-dasharray: none; stroke-linecap: butt; stroke-dashoffset: 0; stroke-linejoin: miter; stroke-miterlimit: 4; fill: rgb(231,199,102); fill-rule: nonzero; opacity: 1; visibility: hidden;" vector-effect="non-scaling-stroke"  x="-540" y="-540" rx="0" ry="0" width="1080" height="1080" />
</g>
<g transform="matrix(0.3 0 0 -0.3 548.02 546.6)"  >
<path style="stroke: none; stroke-width: 1; stroke-dasharray: none; stroke-linecap: butt; stroke-dashoffset: 0; stroke-linejoin: miter; stroke-miterlimit: 4; fill: rgb(231,199,102); fill-rule: nonzero; opacity: 1;" vector-effect="non-scaling-stroke"  transform=" translate(-2586.33, -2323.18)" d="M 1995 3570 C 1983 3566 1968 3555 1961 3546 C 1954 3537 1937 3530 1924 3530 C 1882 3530 1457 3460 1373 3439 C 1285 3418 1181 3379 1145 3356 C 1133 3348 1110 3320 1094 3293 C 1069 3250 1066 3234 1063 3133 C 1061 3072 1063 3019 1068 3016 C 1073 3013 1076 2987 1074 2958 C 1072 2911 1072 2909 1078 2945 L 1085 2985 L 1093 2951 C 1097 2933 1100 2906 1099 2891 C 1099 2868 1098 2867 1090 2885 C 1075 2921 1079 2876 1095 2830 C 1103 2807 1110 2764 1110 2736 C 1110 2674 1134 2524 1155 2454 C 1176 2381 1207 2342 1277 2295 C 1403 2211 1617 2006 1692 1900 C 1702 1886 1725 1854 1743 1828 C 1799 1747 1912 1629 1927 1634 C 1935 1637 1938 1636 1935 1630 C 1932 1625 1934 1613 1939 1603 C 1944 1593 1958 1554 1970 1515 C 2016 1366 2065 1316 2257 1225 C 2522 1099 2665 1067 2966 1068 C 3076 1069 3180 1071 3196 1074 C 3212 1076 3250 1081 3280 1085 C 3447 1104 3706 1172 3830 1228 C 3880 1250 3948 1306 3956 1332 C 3960 1344 3974 1363 3987 1374 C 4058 1429 4086 1507 4060 1576 C 4051 1598 4055 1622 4081 1703 C 4113 1803 4113 1804 4108 1975 C 4101 2193 4087 2228 3939 2400 C 3881 2468 3856 2489 3580 2701 C 3500 2762 3418 2829 3397 2849 C 3370 2874 3361 2879 3366 2865 C 3371 2852 3365 2855 3349 2875 C 3299 2936 3268 2981 3273 2987 C 3276 2990 3295 2967 3315 2937 L 3351 2883 L 3377 2904 C 3436 2952 3450 2970 3450 2995 C 3450 3043 3433 3060 3387 3060 C 3334 3060 3320 3047 3320 2996 L 3320 2956 L 3288 2986 C 3271 3002 3260 3009 3264 3003 C 3281 2972 3259 2995 3219 3048 C 3195 3079 3154 3129 3126 3158 C 3099 3187 3079 3213 3082 3216 C 3085 3218 3116 3186 3151 3144 C 3251 3024 3267 3008 3202 3095 C 3027 3326 2831 3472 2610 3533 C 2545 3551 2505 3554 2300 3555 C 2139 3556 2058 3560 2043 3568 C 2018 3582 2022 3581 1995 3570 z M 2040 3550 C 2020 3537 1967 3537 1975 3550 C 1978 3556 1998 3560 2018 3560 C 2046 3560 2051 3557 2040 3550 z M 2505 3540 C 2544 3534 2598 3522 2625 3513 C 2653 3504 2681 3497 2689 3499 C 2696 3500 2699 3497 2696 3492 C 2689 3480 2718 3468 2732 3477 C 2739 3481 2740 3478 2735 3470 C 2729 3460 2731 3458 2744 3463 C 2755 3468 2759 3466 2754 3458 C 2749 3450 2752 3449 2764 3453 C 2773 3457 2779 3456 2776 3451 C 2773 3447 2782 3438 2796 3431 C 2814 3423 2819 3423 2814 3431 C 2810 3439 2814 3439 2829 3431 C 2840 3424 2850 3417 2850 3414 C 2850 3411 2844 3412 2838 3415 C 2831 3419 2836 3412 2850 3401 C 2864 3390 2880 3382 2886 3384 C 2893 3387 2913 3375 2931 3359 L 2965 3329 L 2925 3356 L 2885 3382 L 2920 3351 C 2939 3334 2960 3322 2966 3324 C 2972 3327 3002 3303 3031 3272 C 3061 3241 3073 3226 3059 3238 C 3042 3253 3030 3258 3025 3251 C 3022 3245 2995 3240 2967 3240 C 2908 3240 2299 3179 2121 3155 C 1961 3134 1971 3132 1922 3199 C 1862 3281 1725 3388 1660 3404 C 1644 3408 1647 3404 1669 3394 C 1752 3356 1890 3240 1931 3173 L 1952 3139 L 1926 3115 C 1900 3091 1900 3090 1901 2938 C 1901 2794 1910 2697 1923 2684 C 1926 2681 1946 2672 1967 2665 C 1995 2655 2004 2647 2002 2633 C 1987 2552 1986 2553 2032 2505 C 2055 2479 2122 2416 2180 2366 C 2281 2277 2350 2221 2580 2042 C 2638 1997 2710 1937 2740 1909 L 2795 1859 L 2660 1864 C 2586 1867 2512 1873 2495 1878 C 2479 1884 2456 1891 2445 1895 C 2434 1898 2437 1894 2452 1886 C 2513 1850 2772 1840 2990 1864 C 3053 1872 3094 1878 3080 1879 C 3066 1880 3000 1875 2934 1869 L 2812 1857 L 2729 1931 C 2683 1972 2569 2064 2475 2136 C 2299 2273 2058 2479 2021 2526 C 1998 2555 1994 2587 2011 2623 C 2021 2645 2029 2647 2173 2658 C 2461 2682 3024 2750 3180 2780 C 3232 2790 3300 2807 3330 2817 L 3385 2835 L 3548 2705 C 3637 2634 3714 2575 3718 2575 C 3734 2575 3837 2490 3902 2423 C 3967 2355 4055 2231 4079 2172 C 4087 2154 4089 2133 4085 2123 C 4080 2113 4075 2094 4073 2080 C 4060 1998 4049 1979 3997 1946 C 3925 1900 3900 1888 3900 1898 C 3900 1903 3918 1915 3939 1925 C 3998 1951 4050 2003 4050 2035 C 4050 2049 4055 2070 4061 2082 C 4067 2094 4045 2081 4004 2050 C 3967 2021 3930 1996 3923 1993 C 3916 1990 3910 1984 3910 1979 C 3910 1974 3921 1977 3935 1986 C 3951 1996 3960 1998 3960 1991 C 3960 1971 3911 1957 3630 1891 C 3404 1838 3342 1829 3037 1806 C 2847 1791 2677 1796 2557 1820 C 2499 1832 2475 1831 2510 1819 C 2528 1813 2522 1812 2488 1816 C 2432 1822 2416 1806 2450 1778 C 2481 1753 2521 1758 2537 1790 C 2548 1812 2550 1813 2556 1796 C 2561 1782 2556 1771 2540 1758 C 2516 1739 2492 1738 2446 1756 C 2430 1762 2428 1760 2433 1746 C 2437 1736 2436 1731 2430 1735 C 2424 1739 2420 1747 2421 1753 C 2425 1778 2407 1828 2396 1824 C 2383 1819 2348 1841 2278 1899 L 2225 1944 L 2282 1884 C 2324 1840 2342 1813 2351 1778 C 2357 1752 2373 1719 2387 1706 C 2414 1679 2523 1638 2545 1647 C 2553 1650 2560 1647 2560 1640 C 2560 1633 2570 1631 2588 1635 C 2603 1638 2665 1633 2725 1623 C 2920 1591 3265 1606 3485 1656 C 3774 1721 3826 1739 3936 1811 C 4044 1882 4069 1912 4071 1972 C 4072 1997 4075 1991 4082 1950 C 4087 1920 4089 1885 4087 1873 C 4085 1860 4087 1850 4093 1850 C 4098 1850 4100 1836 4096 1818 C 4093 1800 4088 1776 4086 1765 C 4084 1754 4082 1742 4081 1738 C 4079 1725 3904 1591 3857 1566 L 3809 1541 L 3849 1515 L 3889 1488 L 3923 1514 C 3976 1554 4027 1617 4040 1656 C 4047 1675 4054 1689 4056 1687 C 4059 1685 4054 1663 4046 1639 C 4038 1616 4033 1593 4036 1588 C 4039 1583 4032 1559 4019 1534 C 3996 1484 3908 1407 3881 1412 C 3872 1414 3851 1437 3833 1464 C 3816 1491 3797 1517 3792 1522 C 3787 1527 3726 1514 3644 1491 C 3429 1429 3382 1421 3130 1402 C 2868 1381 2855 1378 2723 1284 C 2652 1233 2636 1232 2531 1261 C 2431 1289 2333 1341 2284 1392 C 2255 1422 2251 1429 2269 1420 C 2282 1414 2290 1412 2287 1417 C 2284 1421 2268 1493 2250 1575 C 2215 1741 2189 1843 2183 1837 C 2181 1834 2189 1796 2200 1751 C 2212 1706 2220 1664 2217 1657 C 2215 1650 2208 1665 2201 1690 C 2147 1902 2079 2048 2018 2084 C 1991 2100 1987 2100 1965 2086 C 1951 2077 1937 2058 1934 2044 C 1929 2024 1925 2021 1918 2032 C 1912 2040 1910 1999 1913 1918 C 1916 1847 1915 1792 1910 1795 C 1896 1804 1797 1953 1797 1966 C 1797 1973 1793 1978 1789 1977 C 1785 1976 1712 2061 1628 2166 L 1475 2357 L 1452 2466 C 1440 2526 1429 2588 1427 2605 C 1426 2627 1418 2637 1398 2644 C 1383 2649 1368 2652 1366 2649 C 1361 2644 1386 2507 1401 2463 C 1407 2445 1416 2430 1421 2430 C 1426 2430 1429 2425 1427 2418 C 1426 2411 1430 2406 1437 2405 C 1443 2405 1452 2401 1457 2396 C 1462 2391 1460 2390 1453 2394 C 1436 2404 1437 2389 1455 2364 C 1463 2352 1466 2339 1462 2335 C 1458 2332 1460 2330 1467 2332 C 1474 2334 1512 2294 1552 2244 C 1592 2195 1659 2111 1701 2059 C 1805 1930 1913 1771 1896 1774 C 1876 1777 1849 1801 1855 1810 C 1858 1814 1851 1829 1840 1841 C 1829 1854 1821 1861 1820 1856 C 1820 1851 1813 1853 1805 1860 C 1797 1867 1792 1876 1795 1880 C 1798 1885 1783 1903 1763 1920 C 1742 1938 1731 1949 1739 1944 C 1747 1940 1725 1970 1689 2011 C 1654 2052 1607 2110 1586 2140 C 1564 2170 1537 2203 1526 2213 C 1514 2223 1512 2229 1520 2225 C 1528 2221 1524 2227 1511 2238 C 1498 2248 1490 2262 1494 2269 C 1498 2275 1496 2278 1488 2275 C 1454 2262 1378 2409 1340 2560 C 1310 2680 1265 2808 1235 2860 C 1213 2899 1217 2878 1245 2815 C 1259 2783 1269 2753 1267 2747 C 1265 2741 1253 2764 1241 2799 C 1214 2868 1167 2940 1146 2940 C 1139 2940 1128 2930 1123 2918 C 1114 2897 1112 2899 1105 2939 C 1101 2963 1091 2998 1084 3016 C 1065 3062 1066 3094 1085 3060 C 1104 3027 1104 3039 1084 3085 C 1076 3105 1070 3141 1072 3166 L 1075 3209 L 1137 3127 C 1170 3082 1244 2991 1300 2925 C 1431 2771 1430 2772 1430 2759 C 1430 2754 1434 2751 1438 2754 C 1454 2764 1675 2524 1765 2400 C 1787 2370 1819 2329 1836 2310 C 1854 2291 1877 2264 1888 2251 L 1907 2226 L 1915 2249 C 1922 2272 1922 2272 1956 2239 C 2023 2174 1988 2222 1895 2322 C 1831 2391 1800 2433 1799 2450 C 1798 2468 1796 2470 1793 2457 C 1790 2447 1785 2440 1781 2442 C 1769 2447 1440 2787 1440 2794 C 1440 2798 1457 2786 1477 2766 C 1497 2747 1519 2734 1524 2737 C 1529 2741 1514 2760 1491 2781 C 1466 2803 1451 2824 1455 2831 C 1460 2838 1476 2828 1501 2804 C 1550 2756 1552 2767 1504 2820 C 1468 2860 1467 2860 1453 2840 C 1445 2829 1434 2822 1429 2825 C 1424 2829 1423 2823 1427 2813 C 1435 2792 1354 2878 1250 3001 C 1164 3101 1080 3218 1080 3236 C 1080 3244 1088 3263 1099 3280 L 1117 3311 L 1192 3251 C 1285 3176 1371 3084 1422 3005 C 1460 2947 1463 2933 1445 2885 C 1441 2874 1447 2879 1458 2895 C 1498 2956 1571 3002 1562 2961 C 1559 2945 1589 2908 1600 2915 C 1604 2917 1618 2907 1631 2892 C 1644 2878 1647 2872 1638 2879 C 1618 2894 1613 2881 1632 2862 C 1641 2853 1639 2849 1624 2845 C 1579 2830 1560 2820 1560 2810 C 1560 2803 1567 2806 1576 2814 C 1600 2839 1721 2836 1744 2811 C 1754 2800 1760 2783 1758 2773 C 1755 2758 1743 2755 1680 2752 C 1618 2750 1602 2752 1578 2770 C 1544 2795 1541 2782 1574 2751 C 1593 2733 1615 2727 1677 2721 C 1734 2716 1764 2709 1787 2692 C 1821 2668 1836 2665 1842 2680 C 1844 2685 1851 2686 1858 2681 C 1867 2675 1863 2660 1841 2614 C 1824 2582 1808 2537 1805 2515 C 1801 2482 1803 2484 1816 2530 C 1824 2560 1835 2588 1839 2592 C 1862 2616 2151 2292 2330 2040 C 2381 1969 2424 1910 2426 1910 C 2434 1910 2395 1967 2284 2115 C 2137 2312 2031 2437 1931 2533 C 1850 2610 1849 2612 1864 2635 C 1884 2666 1884 2690 1860 2909 C 1840 3093 1826 3146 1787 3189 C 1747 3232 1650 3289 1592 3302 C 1538 3314 1537 3315 1571 3318 C 1624 3323 1712 3285 1770 3233 C 1827 3182 1847 3148 1860 3087 C 1867 3050 1868 3049 1869 3076 C 1871 3121 1824 3205 1777 3244 C 1703 3303 1652 3324 1578 3325 C 1519 3325 1508 3322 1473 3294 C 1430 3259 1413 3213 1424 3159 C 1431 3123 1515 3003 1530 3007 C 1546 3012 1542 3002 1509 2965 L 1478 2930 L 1441 2992 C 1421 3027 1354 3107 1291 3172 C 1228 3237 1181 3290 1186 3290 C 1191 3290 1235 3301 1284 3315 L 1374 3340 L 1340 3312 C 1311 3287 1308 3281 1319 3264 C 1330 3246 1331 3246 1325 3268 C 1321 3280 1321 3290 1325 3290 C 1328 3290 1335 3280 1341 3268 C 1350 3247 1350 3248 1345 3273 C 1340 3298 1345 3304 1405 3342 C 1475 3387 1485 3403 1423 3372 C 1402 3361 1366 3348 1345 3344 C 1323 3340 1274 3326 1236 3313 C 1171 3292 1165 3291 1148 3307 C 1131 3322 1131 3325 1146 3341 C 1155 3351 1182 3367 1206 3376 C 1242 3390 1255 3390 1279 3380 C 1303 3371 1322 3371 1384 3385 C 1425 3394 1463 3399 1468 3396 C 1474 3393 1504 3402 1535 3415 C 1656 3469 1879 3520 2075 3539 C 2203 3551 2423 3551 2505 3540 z M 3050 3127 C 3101 3070 3151 3009 3162 2991 C 3182 2959 3180 2960 3034 3034 C 2952 3075 2873 3114 2857 3119 C 2831 3129 2823 3142 2806 3197 C 2799 3218 2802 3219 2862 3223 C 2897 3225 2932 3227 2942 3228 C 2951 3229 2996 3188 3050 3127 z M 3435 3028 C 3444 2985 3429 2947 3405 2957 C 3397 2960 3390 2958 3390 2953 C 3390 2948 3381 2944 3371 2943 C 3355 2942 3351 2949 3348 2992 C 3347 3019 3347 3044 3349 3046 C 3351 3048 3370 3050 3391 3050 C 3423 3050 3431 3046 3435 3028 z M 1107 2838 C 1104 2830 1101 2833 1101 2844 C 1100 2855 1103 2861 1106 2857 C 1109 2854 1110 2845 1107 2838 z M 1157 2798 C 1154 2790 1151 2793 1151 2804 C 1150 2815 1153 2821 1156 2817 C 1159 2814 1160 2805 1157 2798 z M 1137 2748 C 1134 2740 1131 2743 1131 2754 C 1130 2765 1133 2771 1136 2767 C 1139 2764 1140 2755 1137 2748 z M 1805 2740 L 1825 2731 L 1805 2731 C 1794 2731 1778 2735 1770 2740 C 1757 2749 1757 2750 1770 2749 C 1778 2749 1794 2745 1805 2740 z M 1217 2718 C 1214 2710 1211 2713 1211 2724 C 1210 2735 1213 2741 1216 2737 C 1219 2734 1220 2725 1217 2718 z M 1137 2638 C 1134 2630 1131 2633 1131 2644 C 1130 2655 1133 2661 1136 2657 C 1139 2654 1140 2645 1137 2638 z M 1267 2545 C 1264 2531 1262 2533 1261 2553 C 1261 2570 1254 2580 1245 2580 C 1237 2580 1230 2585 1230 2591 C 1230 2596 1235 2598 1240 2595 C 1246 2591 1250 2601 1251 2617 C 1252 2641 1253 2639 1261 2605 C 1267 2583 1269 2556 1267 2545 z M 1227 2538 C 1224 2530 1221 2533 1221 2544 C 1220 2555 1223 2561 1226 2557 C 1229 2554 1230 2545 1227 2538 z M 1217 2483 C 1214 2473 1212 2479 1212 2495 C 1212 2512 1214 2519 1217 2513 C 1219 2506 1219 2492 1217 2483 z M 1247 2478 C 1244 2470 1241 2473 1241 2484 C 1240 2495 1243 2501 1246 2497 C 1249 2494 1250 2485 1247 2478 z M 1267 2438 C 1264 2431 1262 2436 1262 2450 C 1262 2464 1264 2469 1267 2463 C 1269 2456 1269 2444 1267 2438 z M 1221 2400 C 1226 2400 1231 2408 1231 2418 C 1232 2434 1233 2434 1237 2417 C 1239 2407 1247 2403 1253 2406 C 1260 2410 1257 2405 1248 2395 C 1232 2377 1230 2377 1212 2393 C 1198 2406 1195 2418 1199 2438 C 1205 2465 1205 2465 1208 2433 C 1210 2415 1215 2400 1221 2400 z M 4030 2040 C 4024 2029 4015 2022 4010 2025 C 4006 2028 3997 2018 3992 2003 C 3983 1979 3981 1978 3981 1997 C 3980 2009 3991 2027 4008 2039 C 4042 2065 4043 2065 4030 2040 z M 2037 1956 C 2051 1938 2055 1922 2050 1889 L 2045 1845 L 2042 1897 C 2040 1937 2034 1952 2019 1960 C 2003 1969 2000 1967 1999 1948 C 1999 1927 1998 1927 1991 1945 C 1983 1964 1983 1964 1972 1945 C 1958 1920 1956 1934 1970 1961 C 1984 1987 2015 1985 2037 1956 z M 2006 1802 C 2027 1771 2043 1741 2042 1736 C 2040 1731 2052 1730 2067 1733 C 2091 1737 2092 1736 2078 1726 C 2064 1715 2051 1718 2006 1739 C 1945 1767 1936 1779 1993 1755 C 2013 1747 2032 1740 2035 1740 C 2038 1740 2024 1761 2004 1787 C 1964 1840 1950 1871 1951 1903 C 1952 1918 1954 1915 1960 1892 C 1964 1874 1985 1834 2006 1802 z M 3858 1888 C 3877 1869 3872 1834 3844 1801 C 3803 1752 3750 1764 3750 1820 C 3750 1869 3828 1918 3858 1888 z M 2030 1845 C 2030 1840 2025 1842 2020 1850 C 2015 1858 2010 1870 2010 1875 C 2010 1881 2015 1878 2020 1870 C 2025 1862 2030 1851 2030 1845 z M 1947 1798 C 1945 1785 1943 1795 1943 1820 C 1943 1845 1945 1855 1947 1843 C 1949 1830 1949 1810 1947 1798 z M 2107 1788 C 2104 1780 2101 1783 2101 1794 C 2100 1805 2103 1811 2106 1807 C 2109 1804 2110 1795 2107 1788 z M 2715 1790 C 2763 1782 2762 1782 2693 1783 C 2628 1785 2623 1783 2631 1768 C 2650 1733 2724 1733 2764 1768 C 2782 1784 2782 1784 2772 1764 C 2758 1737 2740 1730 2686 1730 C 2639 1730 2615 1744 2605 1778 C 2599 1798 2602 1800 2632 1799 C 2650 1799 2688 1795 2715 1790 z M 2820 1749 C 2808 1708 2796 1696 2806 1735 C 2813 1767 2819 1780 2825 1780 C 2827 1780 2825 1766 2820 1749 z M 2129 1715 C 2130 1698 2128 1698 2117 1720 C 2109 1734 2106 1751 2108 1759 C 2112 1770 2115 1769 2121 1754 C 2125 1744 2129 1726 2129 1715 z M 2995 1750 C 3010 1733 3011 1727 3000 1699 C 2968 1622 2840 1631 2840 1711 C 2840 1749 2873 1770 2931 1770 C 2964 1770 2982 1764 2995 1750 z M 3407 1734 C 3404 1731 3395 1730 3388 1733 C 3380 1736 3383 1739 3394 1739 C 3405 1740 3411 1737 3407 1734 z M 2477 1724 C 2474 1721 2465 1720 2458 1723 C 2450 1726 2453 1729 2464 1729 C 2475 1730 2481 1727 2477 1724 z M 1957 1688 C 1954 1681 1952 1686 1952 1700 C 1952 1714 1954 1719 1957 1713 C 1959 1706 1959 1694 1957 1688 z M 2533 1713 C 2526 1711 2514 1711 2508 1713 C 2501 1716 2506 1718 2520 1718 C 2534 1718 2539 1716 2533 1713 z M 3223 1713 C 3216 1711 3204 1711 3198 1713 C 3191 1716 3196 1718 3210 1718 C 3224 1718 3229 1716 3223 1713 z M 2613 1703 C 2606 1701 2592 1701 2583 1703 C 2573 1706 2579 1708 2595 1708 C 2612 1708 2619 1706 2613 1703 z M 3123 1703 C 3116 1701 3102 1701 3093 1703 C 3083 1706 3089 1708 3105 1708 C 3122 1708 3129 1706 3123 1703 z M 2698 1693 C 2688 1691 2672 1691 2663 1693 C 2653 1696 2661 1698 2680 1698 C 2699 1698 2707 1696 2698 1693 z M 1971 1654 C 1966 1638 1961 1633 1961 1642 C 1960 1660 1971 1693 1976 1687 C 1978 1686 1975 1671 1971 1654 z M 2121 1668 C 2137 1689 2138 1686 2138 1592 C 2139 1483 2124 1412 2097 1396 C 2082 1387 2074 1390 2054 1413 C 2041 1428 2030 1446 2030 1453 C 2031 1460 2037 1453 2045 1439 C 2060 1412 2085 1396 2100 1405 C 2115 1414 2131 1516 2128 1576 C 2125 1638 2110 1654 2092 1618 L 2080 1595 L 2086 1617 C 2096 1658 2080 1661 2034 1630 C 2005 1609 1990 1592 1990 1577 C 1990 1559 1988 1558 1980 1570 C 1968 1588 1967 1613 1978 1606 C 1982 1604 2006 1620 2030 1643 C 2073 1683 2076 1684 2089 1666 C 2103 1647 2104 1647 2121 1668 z M 2824 1674 C 2829 1661 2827 1660 2818 1668 C 2811 1673 2794 1680 2780 1683 C 2758 1687 2759 1687 2786 1689 C 2807 1690 2820 1684 2824 1674 z M 2227 1608 C 2224 1600 2221 1603 2221 1614 C 2220 1625 2223 1631 2226 1627 C 2229 1624 2230 1615 2227 1608 z M 2097 1528 C 2095 1515 2093 1523 2093 1545 C 2092 1567 2094 1577 2097 1568 C 2099 1558 2099 1540 2097 1528 z M 2051 1496 C 2041 1472 2010 1459 2010 1479 C 2010 1484 2007 1497 2004 1507 C 2001 1517 2005 1514 2013 1500 L 2028 1475 L 2041 1503 C 2056 1537 2064 1532 2051 1496 z M 4025 1464 C 4010 1445 3977 1413 3952 1394 C 3909 1362 3901 1360 3855 1365 C 3814 1370 3783 1364 3684 1331 C 3412 1241 3272 1222 2792 1204 C 2603 1197 2566 1202 2437 1250 C 2376 1273 2259 1347 2252 1367 C 2247 1386 2272 1376 2339 1332 C 2408 1287 2485 1255 2564 1239 C 2592 1233 2622 1226 2630 1223 C 2657 1212 2681 1210 2676 1218 C 2673 1223 2692 1238 2718 1251 C 2760 1272 2783 1275 2945 1281 C 3139 1288 3337 1305 3410 1321 C 3435 1327 3530 1353 3621 1380 C 3802 1434 3816 1437 3844 1415 C 3872 1394 3900 1396 3941 1425 C 3961 1438 3980 1446 3984 1443 C 3987 1440 3997 1443 4005 1450 C 4017 1460 4018 1465 4009 1471 C 4001 1476 4003 1485 4016 1503 C 4031 1523 4037 1525 4043 1513 C 4049 1504 4043 1487 4025 1464 z M 2234 1477 C 2239 1450 2238 1440 2231 1445 C 2225 1448 2220 1467 2220 1487 C 2220 1531 2225 1528 2234 1477 z M 2247 1498 C 2244 1490 2241 1493 2241 1504 C 2240 1515 2243 1521 2246 1517 C 2249 1514 2250 1505 2247 1498 z M 2087 1433 C 2084 1423 2082 1429 2082 1445 C 2082 1462 2084 1469 2087 1463 C 2089 1456 2089 1442 2087 1433 z" stroke-linecap="round" />
</g>
<g transform="matrix(0.3 0 0 -0.3 246.87 209.96)"  >
<path style="stroke: none; stroke-width: 1; stroke-dasharray: none; stroke-linecap: butt; stroke-dashoffset: 0; stroke-linejoin: miter; stroke-miterlimit: 4; fill: rgb(231,199,102); fill-rule: nonzero; opacity: 1;" vector-effect="non-scaling-stroke"  transform=" translate(-1615.86, -3415.19)" d="M 1608 3413 C 1615 3410 1624 3411 1627 3414 C 1631 3417 1625 3420 1614 3419 C 1603 3419 1600 3416 1608 3413 z" stroke-linecap="round" />
</g>
<g transform="matrix(0.3 0 0 -0.3 666.67 248.73)"  >
<path style="stroke: none; stroke-width: 1; stroke-dasharray: none; stroke-linecap: butt; stroke-dashoffset: 0; stroke-linejoin: miter; stroke-miterlimit: 4; fill: rgb(231,199,102); fill-rule: nonzero; opacity: 1;" vector-effect="non-scaling-stroke"  transform=" translate(-3002.5, -3287.53)" d="M 2970 3317 C 2970 3315 2985 3301 3003 3284 L 3035 3255 L 3006 3288 C 2978 3318 2970 3325 2970 3317 z" stroke-linecap="round" />
</g>
<g transform="matrix(0.3 0 0 -0.3 164.74 267.58)"  >
<path style="stroke: none; stroke-width: 1; stroke-dasharray: none; stroke-linecap: butt; stroke-dashoffset: 0; stroke-linejoin: miter; stroke-miterlimit: 4; fill: rgb(231,199,102); fill-rule: nonzero; opacity: 1;" vector-effect="non-scaling-stroke"  transform=" translate(-1344.45, -3225)" d="M 1336 3225 C 1340 3217 1347 3210 1352 3210 C 1358 3210 1357 3216 1350 3225 C 1343 3233 1336 3240 1334 3240 C 1332 3240 1333 3233 1336 3225 z" stroke-linecap="round" />
</g>
<g transform="matrix(0.3 0 0 -0.3 325.5 338.74)"  >
<path style="stroke: none; stroke-width: 1; stroke-dasharray: none; stroke-linecap: butt; stroke-dashoffset: 0; stroke-linejoin: miter; stroke-miterlimit: 4; fill: rgb(231,199,102); fill-rule: nonzero; opacity: 1;" vector-effect="non-scaling-stroke"  transform=" translate(-1875.75, -2990.18)" d="M 1873 2990 C 1873 2960 1875 2947 1877 2963 C 1879 2978 1879 3002 1877 3018 C 1875 3033 1873 3020 1873 2990 z" stroke-linecap="round" />
</g>
<g transform="matrix(0.3 0 0 -0.3 93.77 332.58)"  >
<path style="stroke: none; stroke-width: 1; stroke-dasharray: none; stroke-linecap: butt; stroke-dashoffset: 0; stroke-linejoin: miter; stroke-miterlimit: 4; fill: rgb(231,199,102); fill-rule: nonzero; opacity: 1;" vector-effect="non-scaling-stroke"  transform=" translate(-1110, -3010.22)" d="M 1100 3025 C 1100 3020 1105 3008 1110 3000 C 1115 2992 1120 2990 1120 2995 C 1120 3001 1115 3012 1110 3020 C 1105 3028 1100 3031 1100 3025 z" stroke-linecap="round" />
</g>
<g transform="matrix(0.3 0 0 -0.3 112.36 353.6)"  >
<path style="stroke: none; stroke-width: 1; stroke-dasharray: none; stroke-linecap: butt; stroke-dashoffset: 0; stroke-linejoin: miter; stroke-miterlimit: 4; fill: rgb(231,199,102); fill-rule: nonzero; opacity: 1;" vector-effect="non-scaling-stroke"  transform=" translate(-1170.92, -2941.13)" d="M 1135 2974 C 1146 2971 1168 2954 1184 2937 L 1213 2905 L 1193 2940 C 1179 2967 1167 2975 1145 2977 C 1128 2978 1124 2976 1135 2974 z" stroke-linecap="round" />
</g>
<g transform="matrix(0.3 0 0 -0.3 737.04 446.07)"  >
<path style="stroke: none; stroke-width: 1; stroke-dasharray: none; stroke-linecap: butt; stroke-dashoffset: 0; stroke-linejoin: miter; stroke-miterlimit: 4; fill: rgb(231,199,102); fill-rule: nonzero; opacity: 1;" vector-effect="non-scaling-stroke"  transform=" translate(-3233.19, -2635.7)" d="M 3165 2669 C 3138 2664 3108 2663 3100 2666 C 3091 2669 3089 2668 3095 2663 C 3101 2659 3121 2641 3140 2625 C 3174 2596 3174 2596 3151 2623 C 3130 2646 3129 2650 3144 2650 C 3154 2650 3181 2636 3205 2619 C 3243 2591 3253 2589 3292 2595 C 3315 2599 3346 2607 3359 2611 C 3382 2620 3382 2620 3345 2650 C 3304 2683 3266 2686 3165 2669 z" stroke-linecap="round" />
</g>
<g transform="matrix(0.3 0 0 -0.3 827.85 449.28)"  >
<path style="stroke: none; stroke-width: 1; stroke-dasharray: none; stroke-linecap: butt; stroke-dashoffset: 0; stroke-linejoin: miter; stroke-miterlimit: 4; fill: rgb(231,199,102); fill-rule: nonzero; opacity: 1;" vector-effect="non-scaling-stroke"  transform=" translate(-3535, -2625)" d="M 3530 2625 C 3549 2606 3566 2590 3569 2590 C 3572 2590 3559 2606 3540 2625 C 3521 2644 3504 2660 3501 2660 C 3498 2660 3511 2644 3530 2625 z" stroke-linecap="round" />
</g>
<g transform="matrix(0.3 0 0 -0.3 872.07 507.13)"  >
<path style="stroke: none; stroke-width: 1; stroke-dasharray: none; stroke-linecap: butt; stroke-dashoffset: 0; stroke-linejoin: miter; stroke-miterlimit: 4; fill: rgb(231,199,102); fill-rule: nonzero; opacity: 1;" vector-effect="non-scaling-stroke"  transform=" translate(-3680.06, -2435.45)" d="M 3614 2527 C 3639 2496 3683 2435 3711 2392 C 3740 2350 3767 2311 3773 2305 C 3810 2268 3655 2492 3609 2542 C 3571 2582 3572 2581 3614 2527 z" stroke-linecap="round" />
</g>
<g transform="matrix(0.3 0 0 -0.3 487.67 478.24)"  >
<path style="stroke: none; stroke-width: 1; stroke-dasharray: none; stroke-linecap: butt; stroke-dashoffset: 0; stroke-linejoin: miter; stroke-miterlimit: 4; fill: rgb(231,199,102); fill-rule: nonzero; opacity: 1;" vector-effect="non-scaling-stroke"  transform=" translate(-2409.16, -2529.39)" d="M 2320 2563 C 2247 2557 2243 2553 2286 2520 C 2324 2491 2328 2491 2443 2490 C 2507 2490 2560 2494 2560 2499 C 2560 2504 2541 2522 2518 2539 C 2474 2571 2455 2574 2320 2563 z" stroke-linecap="round" />
</g>
<g transform="matrix(0.3 0 0 -0.3 939.69 556.58)"  >
<path style="stroke: none; stroke-width: 1; stroke-dasharray: none; stroke-linecap: butt; stroke-dashoffset: 0; stroke-linejoin: miter; stroke-miterlimit: 4; fill: rgb(231,199,102); fill-rule: nonzero; opacity: 1;" vector-effect="non-scaling-stroke"  transform=" translate(-3902.51, -2274.24)" d="M 3809 2476 C 3901 2378 4007 2243 4036 2189 C 4055 2151 4047 2136 3976 2085 C 3900 2031 3889 2028 3879 2060 C 3871 2084 3871 2084 3873 2056 C 3875 2030 3870 2025 3835 2014 C 3796 2001 3796 2001 3830 2006 C 3849 2009 3888 2023 3916 2037 C 3969 2063 4060 2139 4060 2157 C 4060 2193 3901 2397 3789 2505 C 3726 2565 3729 2561 3809 2476 z" stroke-linecap="round" />
</g>
<g transform="matrix(0.3 0 0 -0.3 658.59 504)"  >
<path style="stroke: none; stroke-width: 1; stroke-dasharray: none; stroke-linecap: butt; stroke-dashoffset: 0; stroke-linejoin: miter; stroke-miterlimit: 4; fill: rgb(231,199,102); fill-rule: nonzero; opacity: 1;" vector-effect="non-scaling-stroke"  transform=" translate(-2975, -2445)" d="M 2970 2445 C 3017 2398 3057 2360 3060 2360 C 3062 2360 3027 2398 2980 2445 C 2933 2492 2893 2530 2890 2530 C 2888 2530 2923 2492 2970 2445 z" stroke-linecap="round" />
</g>
<g transform="matrix(0.3 0 0 -0.3 787.27 529.19)"  >
<path style="stroke: none; stroke-width: 1; stroke-dasharray: none; stroke-linecap: butt; stroke-dashoffset: 0; stroke-linejoin: miter; stroke-miterlimit: 4; fill: rgb(231,199,102); fill-rule: nonzero; opacity: 1;" vector-effect="non-scaling-stroke"  transform=" translate(-3399.95, -2362.11)" d="M 3333 2427 C 3359 2395 3380 2366 3380 2363 C 3380 2359 3373 2349 3365 2340 C 3351 2325 3352 2320 3371 2296 C 3394 2266 3427 2250 3448 2257 C 3467 2265 3463 2274 3419 2330 C 3367 2396 3375 2407 3429 2343 C 3451 2317 3479 2284 3490 2270 C 3502 2256 3497 2266 3480 2291 C 3445 2342 3373 2416 3362 2413 C 3358 2411 3355 2417 3355 2425 C 3355 2433 3349 2445 3342 2452 C 3336 2458 3330 2460 3330 2455 C 3330 2451 3320 2455 3308 2466 C 3296 2476 3308 2459 3333 2427 z" stroke-linecap="round" />
</g>
<g transform="matrix(0.3 0 0 -0.3 590.57 538.87)"  >
<path style="stroke: none; stroke-width: 1; stroke-dasharray: none; stroke-linecap: butt; stroke-dashoffset: 0; stroke-linejoin: miter; stroke-miterlimit: 4; fill: rgb(231,199,102); fill-rule: nonzero; opacity: 1;" vector-effect="non-scaling-stroke"  transform=" translate(-2750, -2330)" d="M 2745 2330 C 2800 2275 2847 2230 2850 2230 C 2852 2230 2810 2275 2755 2330 C 2700 2385 2653 2430 2650 2430 C 2648 2430 2690 2385 2745 2330 z" stroke-linecap="round" />
</g>
<g transform="matrix(0.3 0 0 -0.3 571.38 544.22)"  >
<path style="stroke: none; stroke-width: 1; stroke-dasharray: none; stroke-linecap: butt; stroke-dashoffset: 0; stroke-linejoin: miter; stroke-miterlimit: 4; fill: rgb(231,199,102); fill-rule: nonzero; opacity: 1;" vector-effect="non-scaling-stroke"  transform=" translate(-2686, -2312.5)" d="M 2669 2366 C 2691 2334 2707 2303 2704 2299 C 2701 2294 2682 2290 2662 2289 C 2642 2289 2608 2286 2588 2282 L 2551 2275 L 2602 2238 C 2651 2201 2655 2200 2737 2200 L 2821 2200 L 2803 2231 C 2793 2247 2750 2298 2707 2343 L 2629 2425 L 2669 2366 z" stroke-linecap="round" />
</g>
<g transform="matrix(0.3 0 0 -0.3 842.9 515.78)"  >
<path style="stroke: none; stroke-width: 1; stroke-dasharray: none; stroke-linecap: butt; stroke-dashoffset: 0; stroke-linejoin: miter; stroke-miterlimit: 4; fill: rgb(231,199,102); fill-rule: nonzero; opacity: 1;" vector-effect="non-scaling-stroke"  transform=" translate(-3585.03, -2404.9)" d="M 3570 2416 C 3570 2414 3578 2406 3588 2399 C 3603 2386 3604 2387 3591 2403 C 3578 2419 3570 2424 3570 2416 z" stroke-linecap="round" />
</g>
<g transform="matrix(0.3 0 0 -0.3 857.36 536.32)"  >
<path style="stroke: none; stroke-width: 1; stroke-dasharray: none; stroke-linecap: butt; stroke-dashoffset: 0; stroke-linejoin: miter; stroke-miterlimit: 4; fill: rgb(231,199,102); fill-rule: nonzero; opacity: 1;" vector-effect="non-scaling-stroke"  transform=" translate(-3632.66, -2337.4)" d="M 3625 2343 C 3640 2319 3655 2300 3657 2300 C 3664 2300 3626 2361 3611 2373 C 3603 2380 3609 2366 3625 2343 z" stroke-linecap="round" />
</g>
<g transform="matrix(0.3 0 0 -0.3 694.6 543.02)"  >
<path style="stroke: none; stroke-width: 1; stroke-dasharray: none; stroke-linecap: butt; stroke-dashoffset: 0; stroke-linejoin: miter; stroke-miterlimit: 4; fill: rgb(231,199,102); fill-rule: nonzero; opacity: 1;" vector-effect="non-scaling-stroke"  transform=" translate(-3095.03, -2314.9)" d="M 3080 2326 C 3080 2324 3088 2316 3098 2309 C 3113 2296 3114 2297 3101 2313 C 3088 2329 3080 2334 3080 2326 z" stroke-linecap="round" />
</g>
<g transform="matrix(0.3 0 0 -0.3 301.28 563.76)"  >
<path style="stroke: none; stroke-width: 1; stroke-dasharray: none; stroke-linecap: butt; stroke-dashoffset: 0; stroke-linejoin: miter; stroke-miterlimit: 4; fill: rgb(231,199,102); fill-rule: nonzero; opacity: 1;" vector-effect="non-scaling-stroke"  transform=" translate(-1795.75, -2246.73)" d="M 1793 2245 C 1793 2212 1795 2200 1797 2218 C 1799 2236 1799 2263 1797 2278 C 1795 2293 1793 2278 1793 2245 z" stroke-linecap="round" />
</g>
<g transform="matrix(0.3 0 0 -0.3 874.88 565.13)"  >
<path style="stroke: none; stroke-width: 1; stroke-dasharray: none; stroke-linecap: butt; stroke-dashoffset: 0; stroke-linejoin: miter; stroke-miterlimit: 4; fill: rgb(231,199,102); fill-rule: nonzero; opacity: 1;" vector-effect="non-scaling-stroke"  transform=" translate(-3690.48, -2242.43)" d="M 3687 2241 C 3702 2213 3716 2193 3718 2195 C 3722 2199 3670 2290 3663 2290 C 3661 2290 3671 2268 3687 2241 z" stroke-linecap="round" />
</g>
<g transform="matrix(0.3 0 0 -0.3 915.69 578.63)"  >
<path style="stroke: none; stroke-width: 1; stroke-dasharray: none; stroke-linecap: butt; stroke-dashoffset: 0; stroke-linejoin: miter; stroke-miterlimit: 4; fill: rgb(231,199,102); fill-rule: nonzero; opacity: 1;" vector-effect="non-scaling-stroke"  transform=" translate(-3825.12, -2198.54)" d="M 3806 2238 C 3821 2209 3841 2163 3852 2135 C 3862 2108 3868 2099 3865 2115 C 3858 2148 3794 2290 3785 2290 C 3782 2290 3792 2266 3806 2238 z" stroke-linecap="round" />
</g>
<g transform="matrix(0.3 0 0 -0.3 709.72 561.18)"  >
<path style="stroke: none; stroke-width: 1; stroke-dasharray: none; stroke-linecap: butt; stroke-dashoffset: 0; stroke-linejoin: miter; stroke-miterlimit: 4; fill: rgb(231,199,102); fill-rule: nonzero; opacity: 1;" vector-effect="non-scaling-stroke"  transform=" translate(-3145.03, -2254.9)" d="M 3130 2266 C 3130 2264 3138 2256 3148 2249 C 3163 2236 3164 2237 3151 2253 C 3138 2269 3130 2274 3130 2266 z" stroke-linecap="round" />
</g>
<g transform="matrix(0.3 0 0 -0.3 316.61 571.1)"  >
<path style="stroke: none; stroke-width: 1; stroke-dasharray: none; stroke-linecap: butt; stroke-dashoffset: 0; stroke-linejoin: miter; stroke-miterlimit: 4; fill: rgb(231,199,102); fill-rule: nonzero; opacity: 1;" vector-effect="non-scaling-stroke"  transform=" translate(-1846, -2222.54)" d="M 1820 2254 C 1820 2249 1832 2232 1846 2215 L 1872 2185 L 1849 2220 C 1820 2265 1820 2265 1820 2254 z" stroke-linecap="round" />
</g>
<g transform="matrix(0.3 0 0 -0.3 388.9 564.23)"  >
<path style="stroke: none; stroke-width: 1; stroke-dasharray: none; stroke-linecap: butt; stroke-dashoffset: 0; stroke-linejoin: miter; stroke-miterlimit: 4; fill: rgb(231,199,102); fill-rule: nonzero; opacity: 1;" vector-effect="non-scaling-stroke"  transform=" translate(-2085.03, -2244.9)" d="M 2070 2256 C 2070 2254 2078 2246 2088 2239 C 2103 2226 2104 2227 2091 2243 C 2078 2259 2070 2264 2070 2256 z" stroke-linecap="round" />
</g>
<g transform="matrix(0.3 0 0 -0.3 438.03 625.36)"  >
<path style="stroke: none; stroke-width: 1; stroke-dasharray: none; stroke-linecap: butt; stroke-dashoffset: 0; stroke-linejoin: miter; stroke-miterlimit: 4; fill: rgb(231,199,102); fill-rule: nonzero; opacity: 1;" vector-effect="non-scaling-stroke"  transform=" translate(-2245.3, -2045.49)" d="M 2126 2183 C 2205 2076 2286 1978 2345 1915 C 2405 1852 2404 1854 2332 1938 C 2288 1989 2219 2073 2180 2125 C 2140 2177 2106 2220 2103 2220 C 2100 2220 2110 2203 2126 2183 z" stroke-linecap="round" />
</g>
<g transform="matrix(0.3 0 0 -0.3 721.84 576.32)"  >
<path style="stroke: none; stroke-width: 1; stroke-dasharray: none; stroke-linecap: butt; stroke-dashoffset: 0; stroke-linejoin: miter; stroke-miterlimit: 4; fill: rgb(231,199,102); fill-rule: nonzero; opacity: 1;" vector-effect="non-scaling-stroke"  transform=" translate(-3185.03, -2204.9)" d="M 3170 2216 C 3170 2214 3178 2206 3188 2199 C 3203 2186 3204 2187 3191 2203 C 3178 2219 3170 2224 3170 2216 z" stroke-linecap="round" />
</g>
<g transform="matrix(0.3 0 0 -0.3 629.53 580.86)"  >
<path style="stroke: none; stroke-width: 1; stroke-dasharray: none; stroke-linecap: butt; stroke-dashoffset: 0; stroke-linejoin: miter; stroke-miterlimit: 4; fill: rgb(231,199,102); fill-rule: nonzero; opacity: 1;" vector-effect="non-scaling-stroke"  transform=" translate(-2880, -2190)" d="M 2875 2190 C 2885 2179 2895 2170 2898 2170 C 2901 2170 2895 2179 2885 2190 C 2875 2201 2865 2210 2862 2210 C 2859 2210 2865 2201 2875 2190 z" stroke-linecap="round" />
</g>
<g transform="matrix(0.3 0 0 -0.3 304.3 599)"  >
<path style="stroke: none; stroke-width: 1; stroke-dasharray: none; stroke-linecap: butt; stroke-dashoffset: 0; stroke-linejoin: miter; stroke-miterlimit: 4; fill: rgb(231,199,102); fill-rule: nonzero; opacity: 1;" vector-effect="non-scaling-stroke"  transform=" translate(-1805.75, -2130.18)" d="M 1803 2130 C 1803 2105 1805 2095 1807 2108 C 1809 2120 1809 2140 1807 2153 C 1805 2165 1803 2155 1803 2130 z" stroke-linecap="round" />
</g>
<g transform="matrix(0.3 0 0 -0.3 733.94 591.47)"  >
<path style="stroke: none; stroke-width: 1; stroke-dasharray: none; stroke-linecap: butt; stroke-dashoffset: 0; stroke-linejoin: miter; stroke-miterlimit: 4; fill: rgb(231,199,102); fill-rule: nonzero; opacity: 1;" vector-effect="non-scaling-stroke"  transform=" translate(-3225.03, -2154.9)" d="M 3210 2166 C 3210 2164 3218 2156 3228 2149 C 3243 2136 3244 2137 3231 2153 C 3218 2169 3210 2174 3210 2166 z" stroke-linecap="round" />
</g>
<g transform="matrix(0.3 0 0 -0.3 381.27 637.54)"  >
<path style="stroke: none; stroke-width: 1; stroke-dasharray: none; stroke-linecap: butt; stroke-dashoffset: 0; stroke-linejoin: miter; stroke-miterlimit: 4; fill: rgb(231,199,102); fill-rule: nonzero; opacity: 1;" vector-effect="non-scaling-stroke"  transform=" translate(-2058.2, -2004.56)" d="M 1949 2123 C 1938 2108 1938 2107 1950 2118 C 2004 2165 2083 2087 2152 1917 C 2168 1877 2178 1859 2175 1875 C 2171 1892 2152 1941 2131 1985 C 2073 2108 1987 2173 1949 2123 z" stroke-linecap="round" />
</g>
<g transform="matrix(0.3 0 0 -0.3 305.1 627.91)"  >
<path style="stroke: none; stroke-width: 1; stroke-dasharray: none; stroke-linecap: butt; stroke-dashoffset: 0; stroke-linejoin: miter; stroke-miterlimit: 4; fill: rgb(231,199,102); fill-rule: nonzero; opacity: 1;" vector-effect="non-scaling-stroke"  transform=" translate(-1808.31, -2035)" d="M 1811 2060 C 1810 2046 1807 2024 1805 2010 L 1799 1985 L 1810 2010 C 1816 2023 1819 2046 1817 2060 L 1813 2085 L 1811 2060 z" stroke-linecap="round" />
</g>
<g transform="matrix(0.3 0 0 -0.3 866.94 647.64)"  >
<path style="stroke: none; stroke-width: 1; stroke-dasharray: none; stroke-linecap: butt; stroke-dashoffset: 0; stroke-linejoin: miter; stroke-miterlimit: 4; fill: rgb(231,199,102); fill-rule: nonzero; opacity: 1;" vector-effect="non-scaling-stroke"  transform=" translate(-3662.88, -1969.5)" d="M 3645 1970 C 3585 1955 3542 1942 3550 1941 C 3558 1941 3617 1953 3680 1969 C 3743 1985 3786 1998 3775 1998 C 3764 1998 3706 1985 3645 1970 z" stroke-linecap="round" />
</g>
<g transform="matrix(0.3 0 0 -0.3 763.41 665.85)"  >
<path style="stroke: none; stroke-width: 1; stroke-dasharray: none; stroke-linecap: butt; stroke-dashoffset: 0; stroke-linejoin: miter; stroke-miterlimit: 4; fill: rgb(231,199,102); fill-rule: nonzero; opacity: 1;" vector-effect="non-scaling-stroke"  transform=" translate(-3319.49, -1909.36)" d="M 3431 1925 C 3395 1918 3308 1906 3236 1899 C 3164 1892 3113 1884 3123 1882 C 3149 1877 3414 1908 3480 1924 C 3549 1941 3516 1942 3431 1925 z" stroke-linecap="round" />
</g>
<g transform="matrix(0.3 0 0 -0.3 499.22 687.15)"  >
<path style="stroke: none; stroke-width: 1; stroke-dasharray: none; stroke-linecap: butt; stroke-dashoffset: 0; stroke-linejoin: miter; stroke-miterlimit: 4; fill: rgb(231,199,102); fill-rule: nonzero; opacity: 1;" vector-effect="non-scaling-stroke"  transform=" translate(-2449.27, -1838.59)" d="M 2420 1842 C 2420 1838 2434 1833 2452 1832 C 2489 1829 2487 1834 2448 1844 C 2432 1847 2420 1847 2420 1842 z" stroke-linecap="round" />
</g>
<g transform="matrix(0.3 0 0 -0.3 982.97 696.69)"  >
<path style="stroke: none; stroke-width: 1; stroke-dasharray: none; stroke-linecap: butt; stroke-dashoffset: 0; stroke-linejoin: miter; stroke-miterlimit: 4; fill: rgb(231,199,102); fill-rule: nonzero; opacity: 1;" vector-effect="non-scaling-stroke"  transform=" translate(-4047.53, -1807.5)" d="M 4044 1808 L 4015 1775 L 4048 1804 C 4078 1832 4085 1840 4077 1840 C 4075 1840 4061 1825 4044 1808 z" stroke-linecap="round" />
</g>
<g transform="matrix(0.3 0 0 -0.3 325.34 700.43)"  >
<path style="stroke: none; stroke-width: 1; stroke-dasharray: none; stroke-linecap: butt; stroke-dashoffset: 0; stroke-linejoin: miter; stroke-miterlimit: 4; fill: rgb(231,199,102); fill-rule: nonzero; opacity: 1;" vector-effect="non-scaling-stroke"  transform=" translate(-1875.03, -1794.9)" d="M 1860 1806 C 1860 1804 1868 1796 1878 1789 C 1893 1776 1894 1777 1881 1793 C 1868 1809 1860 1814 1860 1806 z" stroke-linecap="round" />
</g>
<g transform="matrix(0.3 0 0 -0.3 849.57 752.57)"  >
<path style="stroke: none; stroke-width: 1; stroke-dasharray: none; stroke-linecap: butt; stroke-dashoffset: 0; stroke-linejoin: miter; stroke-miterlimit: 4; fill: rgb(231,199,102); fill-rule: nonzero; opacity: 1;" vector-effect="non-scaling-stroke"  transform=" translate(-3599.55, -1624.69)" d="M 4025 1735 C 3886 1614 3477 1498 3156 1488 C 3115 1487 3112 1486 3140 1482 C 3217 1473 3426 1502 3595 1545 C 3799 1597 3864 1620 3950 1671 C 4018 1711 4092 1770 4075 1769 C 4070 1769 4047 1754 4025 1735 z" stroke-linecap="round" />
</g>
<g transform="matrix(0.3 0 0 -0.3 570.98 758.05)"  >
<path style="stroke: none; stroke-width: 1; stroke-dasharray: none; stroke-linecap: butt; stroke-dashoffset: 0; stroke-linejoin: miter; stroke-miterlimit: 4; fill: rgb(231,199,102); fill-rule: nonzero; opacity: 1;" vector-effect="non-scaling-stroke"  transform=" translate(-2680, -1606.4)" d="M 2298 1702 C 2360 1644 2476 1587 2630 1540 C 2820 1482 2886 1470 3003 1472 L 3105 1473 L 2980 1480 C 2839 1488 2818 1493 2631 1550 C 2481 1596 2390 1639 2310 1700 L 2255 1741 L 2298 1702 z" stroke-linecap="round" />
</g>
<g transform="matrix(0.3 0 0 -0.3 552.57 751.71)"  >
<path style="stroke: none; stroke-width: 1; stroke-dasharray: none; stroke-linecap: butt; stroke-dashoffset: 0; stroke-linejoin: miter; stroke-miterlimit: 4; fill: rgb(231,199,102); fill-rule: nonzero; opacity: 1;" vector-effect="non-scaling-stroke"  transform=" translate(-2625.86, -1625.19)" d="M 2618 1623 C 2625 1620 2634 1621 2637 1624 C 2641 1627 2635 1630 2624 1629 C 2613 1629 2610 1626 2618 1623 z" stroke-linecap="round" />
</g>
<g transform="matrix(0.3 0 0 -0.3 564.67 754.76)"  >
<path style="stroke: none; stroke-width: 1; stroke-dasharray: none; stroke-linecap: butt; stroke-dashoffset: 0; stroke-linejoin: miter; stroke-miterlimit: 4; fill: rgb(231,199,102); fill-rule: nonzero; opacity: 1;" vector-effect="non-scaling-stroke"  transform=" translate(-2665.86, -1615.19)" d="M 2658 1613 C 2665 1610 2674 1611 2677 1614 C 2681 1617 2675 1620 2664 1619 C 2653 1619 2650 1616 2658 1613 z" stroke-linecap="round" />
</g>
<g transform="matrix(0.3 0 0 -0.3 579.81 757.77)"  >
<path style="stroke: none; stroke-width: 1; stroke-dasharray: none; stroke-linecap: butt; stroke-dashoffset: 0; stroke-linejoin: miter; stroke-miterlimit: 4; fill: rgb(231,199,102); fill-rule: nonzero; opacity: 1;" vector-effect="non-scaling-stroke"  transform=" translate(-2715.86, -1605.19)" d="M 2708 1603 C 2715 1600 2724 1601 2727 1604 C 2731 1607 2725 1610 2714 1609 C 2703 1609 2700 1606 2708 1603 z" stroke-linecap="round" />
</g>
<g transform="matrix(0.3 0 0 -0.3 593.25 760.92)"  >
<path style="stroke: none; stroke-width: 1; stroke-dasharray: none; stroke-linecap: butt; stroke-dashoffset: 0; stroke-linejoin: miter; stroke-miterlimit: 4; fill: rgb(231,199,102); fill-rule: nonzero; opacity: 1;" vector-effect="non-scaling-stroke"  transform=" translate(-2760.18, -1594.75)" d="M 2748 1593 C 2754 1591 2766 1591 2773 1593 C 2779 1596 2774 1598 2760 1598 C 2746 1598 2741 1596 2748 1593 z" stroke-linecap="round" />
</g>
<g transform="matrix(0.3 0 0 -0.3 607.05 763.84)"  >
<path style="stroke: none; stroke-width: 1; stroke-dasharray: none; stroke-linecap: butt; stroke-dashoffset: 0; stroke-linejoin: miter; stroke-miterlimit: 4; fill: rgb(231,199,102); fill-rule: nonzero; opacity: 1;" vector-effect="non-scaling-stroke"  transform=" translate(-2805.86, -1585.19)" d="M 2798 1583 C 2805 1580 2814 1581 2817 1584 C 2821 1587 2815 1590 2804 1589 C 2793 1589 2790 1586 2798 1583 z" stroke-linecap="round" />
</g>
<g transform="matrix(0.3 0 0 -0.3 528.75 798.45)"  >
<path style="stroke: none; stroke-width: 1; stroke-dasharray: none; stroke-linecap: butt; stroke-dashoffset: 0; stroke-linejoin: miter; stroke-miterlimit: 4; fill: rgb(231,199,102); fill-rule: nonzero; opacity: 1;" vector-effect="non-scaling-stroke"  transform=" translate(-2544, -1472.43)" d="M 2340 1565 C 2340 1537 2362 1470 2371 1470 C 2376 1470 2377 1463 2374 1455 C 2370 1447 2375 1438 2384 1434 C 2393 1431 2397 1424 2394 1419 C 2391 1414 2394 1410 2399 1410 C 2414 1410 2414 1409 2379 1484 C 2362 1521 2350 1554 2354 1557 C 2357 1560 2370 1558 2383 1553 C 2401 1545 2407 1533 2408 1509 C 2409 1456 2439 1428 2526 1396 L 2604 1367 L 2676 1406 L 2748 1444 L 2635 1477 C 2543 1503 2428 1544 2353 1577 C 2345 1580 2340 1575 2340 1565 z" stroke-linecap="round" />
</g>
<g transform="matrix(0.3 0 0 -0.3 910.69 688.53)"  >
<path style="stroke: none; stroke-width: 1; stroke-dasharray: none; stroke-linecap: butt; stroke-dashoffset: 0; stroke-linejoin: miter; stroke-miterlimit: 4; fill: rgb(231,199,102); fill-rule: nonzero; opacity: 1;" vector-effect="non-scaling-stroke"  transform=" translate(-3808.55, -1834.72)" d="M 3803 1877 C 3791 1872 3776 1854 3769 1837 C 3758 1811 3759 1806 3775 1794 C 3796 1778 3822 1789 3845 1824 C 3871 1864 3845 1896 3803 1877 z" stroke-linecap="round" />
</g>
<g transform="matrix(0.3 0 0 -0.3 643.54 726.12)"  >
<path style="stroke: none; stroke-width: 1; stroke-dasharray: none; stroke-linecap: butt; stroke-dashoffset: 0; stroke-linejoin: miter; stroke-miterlimit: 4; fill: rgb(231,199,102); fill-rule: nonzero; opacity: 1;" vector-effect="non-scaling-stroke"  transform=" translate(-2925.53, -1710.5)" d="M 2880 1742 C 2862 1728 2859 1717 2864 1697 C 2877 1646 2958 1652 2982 1706 C 2993 1729 2992 1734 2975 1746 C 2949 1765 2906 1763 2880 1742 z" stroke-linecap="round" />
</g>
</svg>